<?xml version="1.0" standalone="no"?><!-- Generator: Gravit.io --><svg xmlns="http://www.w3.org/2000/svg" xmlns:xlink="http://www.w3.org/1999/xlink" style="isolation:isolate" viewBox="0 0 483 100" width="483" height="100"><defs><clipPath id="_clipPath_CmIjfsJH5JJZpopDr999bg8Vq2vbdW4Z"><rect width="483" height="100"/></clipPath></defs><g clip-path="url(#_clipPath_CmIjfsJH5JJZpopDr999bg8Vq2vbdW4Z)"><g id="gelato-logo"><g id="updated"><g id="gelato-black"><path d=" M 49.216 45.915 L 38.66 35.359 L 49.216 24.804 L 59.772 35.359 L 49.216 45.915 Z  M 80.88 35.359 L 90.243 25.997 C 93.158 23.079 93.158 18.355 90.243 15.441 C 87.329 12.526 82.605 12.526 79.688 15.441 L 70.325 24.804 L 54.492 8.971 C 51.578 6.057 46.854 6.057 43.939 8.971 L 22.828 30.083 C 19.913 32.997 19.913 37.721 22.828 40.636 L 49.216 67.024 L 70.325 45.915 L 74.411 50.001 L 49.216 75.196 L 18.742 44.722 C 15.827 41.808 11.103 41.808 8.186 44.722 C 5.271 47.637 5.271 52.363 8.186 55.278 L 43.939 91.028 C 46.854 93.943 51.578 93.943 54.492 91.028 L 90.243 55.278 C 93.158 52.363 93.158 47.637 90.243 44.722 L 80.88 35.359 Z " fill-rule="evenodd" fill="rgb(29,28,27)"/><path d=" M 171.523 47.984 L 171.523 75.197 L 164.972 75.197 L 164.972 67.206 C 162.236 72.821 156.549 76.276 148.486 76.276 C 134.16 76.276 125.089 65.118 125.089 50 C 125.089 34.881 134.016 23.723 148.63 23.723 C 159.212 23.723 166.052 28.835 169.219 35.962 L 162.308 39.417 C 160.004 34.018 155.542 30.562 148.486 30.562 C 138.767 30.562 132.648 38.049 132.648 50 C 132.648 62.094 139.271 69.437 149.566 69.437 C 157.413 69.437 164.18 64.614 164.684 54.535 L 145.823 54.535 L 145.823 47.984 L 171.523 47.984 Z " fill-rule="evenodd" fill="rgb(29,28,27)"/><path d=" M 184.408 53.528 L 206.221 53.528 C 205.718 48.416 201.974 43.737 195.279 43.737 C 189.015 43.737 185.345 47.625 184.408 53.528 Z  M 212.917 59.071 L 184.264 59.071 C 185.128 65.695 189.448 70.014 195.423 70.014 C 199.958 70.014 202.55 67.926 204.278 64.83 L 210.397 68.358 C 206.725 74.549 201.11 76.277 195.35 76.277 C 184.841 76.277 177.209 68.502 177.209 56.84 C 177.209 45.609 184.336 37.546 195.495 37.546 C 205.645 37.546 213.133 44.961 213.133 55.472 C 213.133 57.056 212.989 58.423 212.917 59.071 Z " fill-rule="evenodd" fill="rgb(29,28,27)"/><path d=" M 218.819 24.804 L 225.73 24.804 L 225.73 75.198 L 218.819 75.198 L 218.819 24.804 Z " fill-rule="evenodd" fill="rgb(29,28,27)"/><path d=" M 256.182 61.015 L 256.182 58.999 L 246.392 58.999 C 240.632 58.999 238.04 61.303 238.04 64.615 C 238.04 67.926 241.281 70.158 246.032 70.158 C 250.927 70.158 256.182 67.854 256.182 61.015 L 256.182 61.015 Z  M 266.837 69.294 L 266.837 75.198 L 264.03 75.198 C 259.854 75.198 257.622 73.686 257.046 70.374 C 255.174 73.614 251.143 76.061 245.167 76.061 C 237.969 76.061 231.058 72.894 231.058 64.759 C 231.058 56.911 237.897 53.384 245.6 53.384 L 256.182 53.384 L 256.182 51.44 C 256.182 46.329 252.799 43.809 247.904 43.809 C 243.369 43.809 240.632 46.185 239.265 49.137 L 233.001 45.465 C 235.521 40.858 240.704 37.546 247.759 37.546 C 257.262 37.546 263.093 42.873 263.093 50.504 L 263.093 66.342 C 263.093 68.575 263.885 69.294 266.118 69.294 L 266.837 69.294 Z " fill-rule="evenodd" fill="rgb(29,28,27)"/><path d=" M 281.019 44.529 L 281.019 64.183 C 281.019 68.07 282.243 69.366 286.634 69.366 L 291.53 69.366 L 291.53 75.197 L 284.762 75.197 C 277.779 75.197 274.108 72.029 274.108 65.334 L 274.108 44.529 L 266.836 44.529 L 266.836 38.697 L 274.108 38.697 L 274.108 24.804 L 281.019 24.804 L 281.019 38.697 L 291.53 38.697 L 291.53 44.529 L 281.019 44.529 Z " fill-rule="evenodd" fill="rgb(29,28,27)"/><path d=" M 323.779 56.911 C 323.779 48.992 319.172 43.808 312.189 43.808 C 305.133 43.808 300.455 48.992 300.455 56.911 C 300.455 64.974 305.133 70.086 312.189 70.086 C 319.172 70.086 323.779 64.974 323.779 56.911 Z  M 293.471 56.911 C 293.471 44.889 301.463 37.546 312.189 37.546 C 322.771 37.546 330.762 44.889 330.762 56.911 C 330.762 69.006 322.771 76.348 312.189 76.348 C 301.463 76.348 293.471 69.006 293.471 56.911 Z " fill-rule="evenodd" fill="rgb(29,28,27)"/></g></g></g><path d=" M 342.75 75.574 L 342.75 75.574 Q 340.72 75.574 339.32 74.209 L 339.32 74.209 L 339.32 74.209 Q 337.92 72.844 337.92 70.814 L 337.92 70.814 L 337.92 70.814 Q 337.92 68.784 339.32 67.419 L 339.32 67.419 L 339.32 67.419 Q 340.72 66.054 342.75 66.054 L 342.75 66.054 L 342.75 66.054 Q 344.78 66.054 346.18 67.454 L 346.18 67.454 L 346.18 67.454 Q 347.58 68.854 347.58 70.814 L 347.58 70.814 L 347.58 70.814 Q 347.58 72.774 346.18 74.174 L 346.18 74.174 L 346.18 74.174 Q 344.78 75.574 342.75 75.574 L 342.75 75.574 L 342.75 75.574 Z  M 342.75 48.624 L 342.75 48.624 Q 340.72 48.624 339.32 47.259 L 339.32 47.259 L 339.32 47.259 Q 337.92 45.894 337.92 43.864 L 337.92 43.864 L 337.92 43.864 Q 337.92 41.834 339.32 40.469 L 339.32 40.469 L 339.32 40.469 Q 340.72 39.104 342.75 39.104 L 342.75 39.104 L 342.75 39.104 Q 344.78 39.104 346.18 40.504 L 346.18 40.504 L 346.18 40.504 Q 347.58 41.904 347.58 43.864 L 347.58 43.864 L 347.58 43.864 Q 347.58 45.824 346.18 47.224 L 346.18 47.224 L 346.18 47.224 Q 344.78 48.624 342.75 48.624 L 342.75 48.624 L 342.75 48.624 Z  M 387.55 69.274 L 388.25 69.274 L 388.25 75.014 L 385.52 75.014 L 385.52 75.014 Q 382.44 75.014 380.795 73.859 L 380.795 73.859 L 380.795 73.859 Q 379.15 72.704 378.73 70.324 L 378.73 70.324 L 378.73 70.324 Q 377.26 72.844 374.32 74.349 L 374.32 74.349 L 374.32 74.349 Q 371.38 75.854 367.18 75.854 L 367.18 75.854 L 367.18 75.854 Q 361.37 75.854 357.415 73.124 L 357.415 73.124 L 357.415 73.124 Q 353.46 70.394 353.46 64.864 L 353.46 64.864 L 353.46 64.864 Q 353.46 59.474 357.52 56.639 L 357.52 56.639 L 357.52 56.639 Q 361.58 53.804 367.6 53.804 L 367.6 53.804 L 377.89 53.804 L 377.89 51.914 L 377.89 51.914 Q 377.89 48.274 375.72 46.384 L 375.72 46.384 L 375.72 46.384 Q 373.55 44.494 369.84 44.494 L 369.84 44.494 L 369.84 44.494 Q 366.69 44.494 364.59 45.929 L 364.59 45.929 L 364.59 45.929 Q 362.49 47.364 361.44 49.674 L 361.44 49.674 L 355.35 46.104 L 355.35 46.104 Q 357.24 42.604 360.985 40.504 L 360.985 40.504 L 360.985 40.504 Q 364.73 38.404 369.7 38.404 L 369.7 38.404 L 369.7 38.404 Q 374.25 38.404 377.61 39.979 L 377.61 39.979 L 377.61 39.979 Q 380.97 41.554 382.79 44.424 L 382.79 44.424 L 382.79 44.424 Q 384.61 47.294 384.61 51.004 L 384.61 51.004 L 384.61 66.404 L 384.61 66.404 Q 384.61 68.014 385.275 68.644 L 385.275 68.644 L 385.275 68.644 Q 385.94 69.274 387.55 69.274 L 387.55 69.274 L 387.55 69.274 Z  M 368.02 70.114 L 368.02 70.114 Q 372.08 70.114 374.985 67.979 L 374.985 67.979 L 374.985 67.979 Q 377.89 65.844 377.89 61.224 L 377.89 61.224 L 377.89 59.264 L 368.37 59.264 L 368.37 59.264 Q 364.31 59.264 362.28 60.734 L 362.28 60.734 L 362.28 60.734 Q 360.25 62.204 360.25 64.724 L 360.25 64.724 L 360.25 64.724 Q 360.25 67.104 362.385 68.609 L 362.385 68.609 L 362.385 68.609 Q 364.52 70.114 368.02 70.114 L 368.02 70.114 L 368.02 70.114 Z  M 412.89 38.474 L 412.89 38.474 Q 417.79 38.474 421.64 40.749 L 421.64 40.749 L 421.64 40.749 Q 425.49 43.024 427.66 47.259 L 427.66 47.259 L 427.66 47.259 Q 429.83 51.494 429.83 57.234 L 429.83 57.234 L 429.83 57.234 Q 429.83 62.974 427.66 67.244 L 427.66 67.244 L 427.66 67.244 Q 425.49 71.514 421.64 73.789 L 421.64 73.789 L 421.64 73.789 Q 417.79 76.064 412.89 76.064 L 412.89 76.064 L 412.89 76.064 Q 408.97 76.064 405.855 74.594 L 405.855 74.594 L 405.855 74.594 Q 402.74 73.124 400.71 70.324 L 400.71 70.324 L 400.71 87.194 L 393.99 87.194 L 393.99 39.524 L 400.29 39.524 L 400.29 44.774 L 400.29 44.774 Q 402.32 41.694 405.54 40.084 L 405.54 40.084 L 405.54 40.084 Q 408.76 38.474 412.89 38.474 L 412.89 38.474 L 412.89 38.474 Z  M 411.7 70.044 L 411.7 70.044 Q 416.81 70.044 419.89 66.544 L 419.89 66.544 L 419.89 66.544 Q 422.97 63.044 422.97 57.234 L 422.97 57.234 L 422.97 57.234 Q 422.97 51.424 419.89 47.959 L 419.89 47.959 L 419.89 47.959 Q 416.81 44.494 411.7 44.494 L 411.7 44.494 L 411.7 44.494 Q 406.52 44.494 403.44 47.959 L 403.44 47.959 L 403.44 47.959 Q 400.36 51.424 400.36 57.234 L 400.36 57.234 L 400.36 57.234 Q 400.36 63.044 403.44 66.544 L 403.44 66.544 L 403.44 66.544 Q 406.52 70.044 411.7 70.044 L 411.7 70.044 L 411.7 70.044 Z  M 436.34 75.014 L 436.34 39.524 L 443.06 39.524 L 443.06 75.014 L 436.34 75.014 L 436.34 75.014 Z  M 439.7 33.924 L 439.7 33.924 Q 437.81 33.924 436.55 32.699 L 436.55 32.699 L 436.55 32.699 Q 435.29 31.474 435.29 29.654 L 435.29 29.654 L 435.29 29.654 Q 435.29 27.834 436.55 26.574 L 436.55 26.574 L 436.55 26.574 Q 437.81 25.314 439.7 25.314 L 439.7 25.314 L 439.7 25.314 Q 441.52 25.314 442.815 26.574 L 442.815 26.574 L 442.815 26.574 Q 444.11 27.834 444.11 29.654 L 444.11 29.654 L 444.11 29.654 Q 444.11 31.404 442.815 32.664 L 442.815 32.664 L 442.815 32.664 Q 441.52 33.924 439.7 33.924 L 439.7 33.924 L 439.7 33.924 Z " fill-rule="evenodd" fill="rgb(0,0,0)"/></g></svg>